<svg width="555" height="197" viewBox="0 0 555 197" fill="none" xmlns="http://www.w3.org/2000/svg">
<path d="M77.887 158.478H60V173H126.561C126.892 162.844 126.561 140.5 126.561 136.231C126.561 130.343 117.621 130.428 115.138 130.911C112.654 131.395 110.668 133.813 109.178 136.231C107.986 138.166 106.694 141.275 104.707 143.485C102.1 146.387 97.2573 150.74 92.7873 154.125C88.7707 157.167 81.1982 158.317 77.887 158.478Z" fill="#00E0FF"/>
<path d="M71.5 103.345H51V118.337C52.1589 118.176 65.4701 117.95 69.4435 118.337C73.4169 118.724 77.3903 120.433 78.8803 121.239C85.3371 126.075 84.46 128.202 85.8338 131.879C87 135 88.3004 137.682 95.2706 137.682C100.5 137.682 103.5 134.5 103.5 131.235L103.217 88.8362C103 85.4916 98.7474 84 94.774 84C90.8006 84 88.5298 85.2431 86.8271 87.869C83.5 93 84 93 81 97.5C78.3847 101.423 73.5698 103 71.5 103.345Z" fill="#00E0FF"/>
<path d="M77.887 158.478H60V173H126.561C126.892 162.844 126.561 140.5 126.561 136.231C126.561 130.343 117.621 130.428 115.138 130.911C112.654 131.395 110.668 133.813 109.178 136.231C107.986 138.166 106.694 141.275 104.707 143.485C102.1 146.387 97.2573 150.74 92.7873 154.125C88.7707 157.167 81.1982 158.317 77.887 158.478Z" stroke="#EEC229"/>
<path d="M71.5 103.345H51V118.337C52.1589 118.176 65.4701 117.95 69.4435 118.337C73.4169 118.724 77.3903 120.433 78.8803 121.239C85.3371 126.075 84.46 128.202 85.8338 131.879C87 135 88.3004 137.682 95.2706 137.682C100.5 137.682 103.5 134.5 103.5 131.235L103.217 88.8362C103 85.4916 98.7474 84 94.774 84C90.8006 84 88.5298 85.2431 86.8271 87.869C83.5 93 84 93 81 97.5C78.3847 101.423 73.5698 103 71.5 103.345Z" stroke="#EEC229"/>
<path d="M293.5 63C293.5 67.173 290.336 70.5 286.5 70.5C282.664 70.5 279.5 67.173 279.5 63C279.5 58.827 282.664 55.5 286.5 55.5C290.336 55.5 293.5 58.827 293.5 63Z" fill="#00E0FF" stroke="#EEC229"/>
<path d="M286.5 57C284.667 57.1667 281 58.6 281 63C281 67.4 284.667 68.8333 286.5 69C285.667 68 284 65.4 284 63C284 60.6 285.667 58 286.5 57Z" fill="#03738C" stroke="#03738C" stroke-width="0.5"/>
<path d="M58 61.1148L75.1143 61.6015C78.4701 61.7637 85.4271 63.6433 90.2152 65.4952C95.2489 67.4421 99.7791 71.3358 103.303 75.2295C104.309 76.8519 107.128 81.0701 108.336 83.017C109.846 85.4506 112.363 87.3975 114.88 87.8842C116.893 88.2735 123.437 87.8841 124.444 83.5037C125.493 78.9383 124.798 57.7685 124.457 47.395L124.444 47H65.5L58 61.1148Z" fill="#00E0FF"/>
<path d="M124.444 47H65.5L58 61.1148L75.1143 61.6015C78.4701 61.7637 85.4271 63.6433 90.2152 65.4952C95.2489 67.4421 99.7791 71.3358 103.303 75.2295C104.309 76.8519 107.128 81.0701 108.336 83.017C109.846 85.4506 112.363 87.3975 114.88 87.8842C116.893 88.2735 123.437 87.8841 124.444 83.5037C125.493 78.9383 124.798 57.7685 124.457 47.395M124.444 47L124.457 47.395M124.444 47C124.448 47.1298 124.453 47.2615 124.457 47.395" stroke="#EEC229"/>
<path d="M24 80.6362V158H60V80.6362H68.8889V78.8157H15.1111V80.6362H24Z" fill="#03738C"/>
<path d="M17.3333 78.8157L8 47.2617H76L66.2222 78.8157H17.3333Z" fill="#03738C"/>
<path fill-rule="evenodd" clip-rule="evenodd" d="M41.5 28V43.3777H54.6948L55.9585 35.6888L57.2222 28H41.5Z" fill="#03738C"/>
<path fill-rule="evenodd" clip-rule="evenodd" d="M26.1111 28L29.5 43.3777H41.5V28H26.1111Z" fill="#03738C"/>
<path fill-rule="evenodd" clip-rule="evenodd" d="M15.4445 28C16.4815 32.8545 18.5 43.1349 18.5 43.3777H29.5L26.1111 28H15.4445Z" fill="#03738C"/>
<path fill-rule="evenodd" clip-rule="evenodd" d="M64 43.3777L67 28H57.2222L55.9585 35.6888L54.6948 43.3777H64Z" fill="#03738C"/>
<path d="M26.1111 28H15.4445C16.4815 32.8545 18.5 43.1349 18.5 43.3777H29.5M26.1111 28L29.5 43.3777M26.1111 28H41.5M29.5 43.3777H41.5M41.5 28V43.3777M41.5 28H57.2222M41.5 43.3777H54.6948M57.2222 28H67L64 43.3777H54.6948M57.2222 28L55.9585 35.6888L54.6948 43.3777M24 80.6362V158H60V80.6362H68.8889V78.8157H15.1111V80.6362H24ZM17.3333 78.8157L8 47.2617H76L66.2222 78.8157H17.3333Z" stroke="#EEC229"/>
<path d="M15.3228 44H67.7953C70 44.2857 69.5 46.5 69.5 46.5H42L14 47C14 47 14.0882 45.3143 14.4409 44.8571C14.7937 44.4 15.1759 44.0952 15.3228 44Z" fill="#00E0FF"/>
<path d="M15.3228 44H67.7953C70 44.2857 69.5 46.5 69.5 46.5H42L14 47C14 47 14.0882 45.3143 14.4409 44.8571C14.7937 44.4 15.1759 44.0952 15.3228 44Z" stroke="#EEC229"/>
<path d="M15.4118 28H26H41H56.8823H66.5882H71C71 27.5 71 25.7992 71 23.5983C71 21.5234 68.7941 21.0307 67.4706 21.0307C51 21.153 17.3529 21.3241 14.5294 21.0307C11.7059 20.7372 11 22.6202 11 23.5983V28H15.4118Z" fill="#00E0FF"/>
<path d="M15.4118 28H26H41H56.8823H66.5882H71C71 27.5 71 25.7992 71 23.5983C71 21.5234 68.7941 21.0307 67.4706 21.0307C51 21.153 17.3529 21.3241 14.5294 21.0307C11.7059 20.7372 11 22.6202 11 23.5983V28H15.4118Z" stroke="#EEC229"/>
<path d="M17.5 30L20.0228 42H26L23 30H17.5Z" fill="#00E0FF" stroke="#00B1C9" stroke-width="0.5"/>
<path d="M28 30L31 42H36L33 30H28Z" fill="#00E0FF" stroke="#20B2AA" stroke-width="0.5"/>
<path d="M46 30V42H43V30H46Z" fill="#00E0FF" stroke="#00B1C9" stroke-width="0.5"/>
<path fill-rule="evenodd" clip-rule="evenodd" d="M181 85C168 90.5 160 118 160 118.01C160 118.019 160.013 118.01 160.013 118.01C160.205 118.154 163.808 120.856 164 121C164.886 119 165.718 116.595 166.5 114.5C169.114 107.5 169.439 105.842 174 99C179.711 90.4335 187.5 87.5 193.5 87C198.3 86.6 201.5 87.5 202.5 88C208.1 91.2 209.5 96 209.5 98V123.5C209.461 123.5 209.416 123.5 209.366 123.5C208.346 123.498 205.062 123.493 200.5 124C196 124.5 189.957 126.426 186.5 128.5C181.5 131.5 168.5 140 170.5 154.5C172.5 169 185 173 188 173.5C191 174 200 175 208 170.5C212.444 168 216 164.5 217.5 161.5C221 169 224 170.5 228.5 173.5L231.5 166.5C231.5 166.5 228.038 162.809 226.5 160C224.721 156.75 223.5 151 223.5 151C223 147.5 223 146 223 132C223 128.309 223.07 124.896 223.135 121.669C223.319 112.657 223.473 105.1 222 97C220 86 213 82.5 205 81.5C197 80.5 188.208 81.9506 181 85ZM189 140C192.724 136.5 205 135 209.5 135C209.667 140.833 209.5 149 209.5 150C209.5 150.5 209.5 152.5 209.5 153.5C208.865 154.812 205.602 160.519 195.5 161C187.1 161.4 184 156.167 183.5 153.5C182.5 145.5 186.34 142.5 189 140C190.919 138.196 187.5 141.41 189 140Z" fill="#00E0FF"/>
<path d="M133 83H124.5C123.7 87 121.833 88 121 88L142 172H148C152 160 159.659 132.881 164 121C162.443 119.832 160.013 118.01 160.013 118.01C154.38 132.516 154.652 136.711 150.5 149L133 83Z" fill="#00E0FF"/>
<path d="M241.5 169C238.5 169 234.291 168.361 231.5 166.5L228.5 173.5C238 176.5 251 177.5 261.5 171C279.5 155.4 270 137 259.5 129.5C249 122 245.667 113.5 245.5 107.5C245.5 89 268 88.5 269.5 88.5C270.7 88.5 277.333 88.3334 280.5 88.5V163C282.5 176 293 175.5 296 175.5H329H374H391.5V129V112C391.5 105.5 391.294 106 393.5 98.5C395.706 91 402 88 405 89C408 90 408.5 91 410 94C412.419 98.8374 413 111 413 115C413 119 412.5 156 413 162.5C413.5 169 417 171.5 421.5 173.5C426 175.5 433 174.5 434.5 174C436 173.5 439 171 440 168.5C440.8 166.5 441.667 163 442 161.5C443 158 449 126.5 449.5 124C449.9 122 451.667 114.167 452.5 110.5C453.833 110.5 456.765 109.934 458.5 109.5C462.5 108.5 467 106.5 469.5 105.5L467 101.5C466.667 101.667 463.5 102.5 462 103C461.151 103.283 457 104.667 453.5 105.5C454 101.5 454.585 94.8387 453.5 90.5C453 88.5 451.22 85.3602 448.5 84C446.5 83 445.5 82.5 443 84C440.856 85.2863 441.5 92 441.5 93C441.5 93 431.5 87 430 92.5C428.5 98 432.225 102.725 433.5 104C436 106.5 444 110 447 111C444 126.333 437.9 157.9 437.5 159.5C437 161.5 436.5 168.5 432.5 168.5C428.86 168.5 426.5 166.5 426.5 160C426.5 159 427.5 117 427.5 107C427.5 97 423 91 422 90C421 89 418 85 407.5 84C399.1 83.2 393.333 88.3334 391.5 91V83.5H374.5V170.5H349.5H318C312.667 170.667 300 170.4 298 170C295.5 169.5 295 165 295 162V136.5V84C285.833 83.6667 265.9 83 259.5 83C251.5 83 246 84 239 90.5C232 97 233 102.89 233 107.5C233 112 235.985 119.985 244.5 128.5C253 137 250 134 255 139.5C260 145 259.5 154.5 257 160.5C254.5 166.5 244.5 169 241.5 169Z" fill="#00E0FF"/>
<path d="M160 118.01C160 118 168 90.5 181 85C188.208 81.9506 197 80.5 205 81.5C213 82.5 220 86 222 97C223.473 105.1 223.319 112.657 223.135 121.669C223.07 124.896 223 128.309 223 132C223 146 223 147.5 223.5 151C223.5 151 224.721 156.75 226.5 160C228.038 162.809 231.5 166.5 231.5 166.5M160 118.01C160 118.019 160.013 118.01 160.013 118.01M160 118.01C160 118.01 160.033 117.957 160.013 118.01M231.5 166.5C234.291 168.361 238.5 169 241.5 169C244.5 169 254.5 166.5 257 160.5C259.5 154.5 260 145 255 139.5C250 134 253 137 244.5 128.5C235.985 119.985 233 112 233 107.5C233 102.89 232 97 239 90.5C246 84 251.5 83 259.5 83C265.9 83 285.833 83.6667 295 84M231.5 166.5L228.5 173.5M295 84C295 99.6667 295 132.1 295 136.5M295 84V136.5M295 136.5C295 142 295 159 295 162M295 136.5V162M295 162C295 165 295.5 169.5 298 170C300 170.4 312.667 170.667 318 170.5H349.5H374.5V83.5H391.5V91C393.333 88.3334 399.1 83.2 407.5 84C418 85 421 89 422 90C423 91 427.5 97 427.5 107C427.5 117 426.5 159 426.5 160C426.5 166.5 428.86 168.5 432.5 168.5C436.5 168.5 437 161.5 437.5 159.5C437.9 157.9 444 126.333 447 111C444 110 436 106.5 433.5 104C432.225 102.725 428.5 98 430 92.5C431.5 87 441.5 93 441.5 93C441.5 92 440.856 85.2863 443 84C445.5 82.5 446.5 83 448.5 84C451.22 85.3602 453 88.5 453.5 90.5C454.585 94.8387 454 101.5 453.5 105.5C457 104.667 461.151 103.283 462 103C463.5 102.5 466.667 101.667 467 101.5L469.5 105.5C467 106.5 462.5 108.5 458.5 109.5C456.765 109.934 453.833 110.5 452.5 110.5C451.667 114.167 449.9 122 449.5 124C449 126.5 443 158 442 161.5C441.667 163 440.8 166.5 440 168.5C439 171 436 173.5 434.5 174C433 174.5 426 175.5 421.5 173.5C417 171.5 413.5 169 413 162.5C412.5 156 413 119 413 115C413 111 412.419 98.8374 410 94C408.5 91 408 90 405 89C402 88 395.706 91 393.5 98.5C391.294 106 391.5 105.5 391.5 112M391.5 112C391.5 116.4 391.5 125.167 391.5 129M391.5 112V129M391.5 129V175.5M391.5 175.5C386.833 175.5 376.8 175.5 374 175.5M391.5 175.5H374M374 175.5C371.2 175.5 342.167 175.5 329 175.5M374 175.5H329M329 175.5C319 175.5 298.4 175.5 296 175.5M329 175.5H296M296 175.5C293 175.5 282.5 176 280.5 163V88.5C277.333 88.3334 270.7 88.5 269.5 88.5C268 88.5 245.5 89 245.5 107.5C245.667 113.5 249 122 259.5 129.5C270 137 279.5 155.4 261.5 171C251 177.5 238 176.5 228.5 173.5M228.5 173.5C224 170.5 221 169 217.5 161.5C216 164.5 212.444 168 208 170.5C200 175 191 174 188 173.5C185 173 172.5 169 170.5 154.5C168.5 140 181.5 131.5 186.5 128.5C189.957 126.426 196 124.5 200.5 124C205.062 123.493 208.346 123.498 209.366 123.5C209.416 123.5 209.461 123.5 209.5 123.5M164 121C159.659 132.881 152 160 148 172H142L121 88C121.833 88 123.7 87 124.5 83H133L150.5 149C154.652 136.711 154.38 132.516 160.013 118.01M164 121C164.886 119 165.718 116.595 166.5 114.5C169.114 107.5 169.439 105.842 174 99C179.711 90.4335 187.5 87.5 193.5 87C198.3 86.6 201.5 87.5 202.5 88C208.1 91.2 209.5 96 209.5 98V123.5M164 121C162.443 119.832 160.013 118.01 160.013 118.01M164 121C163.808 120.856 160.205 118.154 160.013 118.01M209.5 123.5V127V135M209.5 135C205 135 192.724 136.5 189 140M209.5 135C209.667 140.833 209.5 149 209.5 150C209.5 150.5 209.5 152.5 209.5 153.5C208.865 154.812 205.602 160.519 195.5 161C187.1 161.4 184 156.167 183.5 153.5C182.5 145.5 186.34 142.5 189 140M189 140C190.919 138.196 187.5 141.41 189 140Z" stroke="#EEC229"/>
<path d="M143.716 168L123 89.2015C123 89.2015 123.928 88.6516 124.5 87.5C125.155 86.181 125.5 85 125.5 85H131.114L150.5 156.202L146.657 168H143.716Z" fill="#03738C"/>
<path d="M284.5 88H293V164.835C293 168.454 295.294 171.675 299 172C294.298 171.485 284 172.521 284 159.65L284.5 88Z" fill="#03738C"/>
<path d="M408 86C419.667 86.5057 425.268 94.1084 425.268 107.24C425.268 120.582 425.022 149.068 424.801 163.88C425.268 171.971 431.71 171.109 434.602 171.465C436.576 171.708 430.86 173.874 425.201 172.603C421.185 171.7 416.853 168.501 416.867 164.177L416.4 108.757C416.4 102.833 414.534 88.0228 408 86Z" fill="#03738C"/>
<path d="M241 122C244.5 123.5 243.712 123.43 249 126C252.588 127.744 263 132.5 267.5 142C268.653 144.433 271.5 153.5 267.5 160C266.628 161.416 261.5 167 253.5 167C260.5 164.5 262 153.5 261.5 149.5C261 145.5 259.214 140.715 256 137.5C251 132.5 244.213 125.501 241 122Z" fill="#03738C"/>
<path d="M251 125C244 121.5 235 116.468 235 106C235 96.5 240 91.5 245 88.5C250.752 85.0486 257 86.5 267 87C261.5 87.5 251 90 247.446 94.9336C243.891 99.8672 241.136 105.531 244.5 114.5C246.683 120.319 251 125 251 125Z" fill="#03738C"/>
<path d="M368.5 125.5C368.5 137.687 364.656 148.956 358.537 157.167C352.416 165.381 344.051 170.5 335 170.5C325.953 170.5 317.84 165.386 311.969 157.175C306.098 148.966 302.5 137.695 302.5 125.5C302.5 113.31 306.22 102.293 312.211 94.3345C318.202 86.3764 326.441 81.5 335.5 81.5C344.559 81.5 352.798 86.3764 358.789 94.3345C364.78 102.293 368.5 113.31 368.5 125.5Z" stroke="#EEC229"/>
<path d="M496.601 110L533 68L502.497 79.0385L471.994 90.0769L483 99L496.601 110Z" fill="#EEC229"/>
<path d="M533 68L452 73.9231L467.38 86.3077L533 68Z" fill="#EEC229"/>
<path d="M471.994 90.0769L502.497 79.0385L533 68L467.38 86.3077V105.5L471.994 90.0769Z" fill="#03738C"/>
<path d="M471.994 90.0769L467.38 105.5L475 102.5L483 99L471.994 90.0769Z" fill="#03738C"/>
<path d="M533 68L452 73.9231L467.38 86.3077M533 68L496.601 110L483 99M533 68L467.38 86.3077M533 68L502.497 79.0385L471.994 90.0769M471.994 90.0769L467.38 105.5M471.994 90.0769L483 99M467.38 86.3077V105.5M467.38 105.5L475 102.5L483 99" stroke="#EEC229"/>
<path d="M443.226 96.8835C443.376 95.8689 443.948 93.5354 445.032 92.318C446.387 90.7961 447.742 90.7961 448.645 91.3034C450 92.0643 450 94.3471 450 95.3616C450 96.1733 448.495 102.125 447.742 105C445.634 105 439.794 102.869 438.71 102.464C437.626 102.058 436 100.434 436 98.4053C436 96.8835 437.248 95.8689 438.258 95.8689C439.161 95.8689 441.871 96.3762 443.226 96.8835Z" fill="#03738C"/>
<path d="M60.0641 171.5C57.5 171.5 116.797 171.5 124.968 171.5C124.968 169.856 124.968 159.223 124.968 154.534L124.968 142C124.968 139.069 125.537 136.839 121.904 135.305C119.793 134.414 117.611 135.551 116.739 137.754C116.003 139.614 111.839 150.416 108.5 154C101.668 161.333 96 161.05 81.6984 161.772C72.0198 162.261 60.0641 162.227 60.0641 162.227V171.5Z" fill="#03738C"/>
<path d="M124.968 154.534C124.968 159.223 124.968 169.856 124.968 171.5C116.797 171.5 57.5 171.5 60.0641 171.5V162.227C60.0641 162.227 72.0198 162.261 81.6984 161.772C96 161.05 101.668 161.333 108.5 154C111.839 150.416 116.003 139.614 116.739 137.754C117.611 135.551 119.793 134.414 121.904 135.305C125.537 136.839 124.968 139.069 124.968 142M124.968 154.534C124.968 148.672 124.968 144.931 124.968 142M124.968 154.534L124.968 142" stroke="#03738C"/>
<path d="M20.5 158.5H63V173H20.5V158.5Z" fill="#03738C"/>
<path d="M11 49L19.0612 77.1495H28.4395L20.5125 49H11Z" fill="#00E0FF"/>
<path d="M27.0735 156H32.8602V80.9667H27.0735V156Z" fill="#00E0FF"/>
<path d="M20.5 158.5H63V173H20.5V158.5Z" stroke="#EEC229"/>
<path d="M11 49L19.0612 77.1495H28.4395L20.5125 49H11Z" stroke="#EEC229"/>
<path d="M27.0735 156H32.8602V80.9667H27.0735V156Z" stroke="#EEC229"/>
<path d="M76.5 49C74.3208 49 115.513 49 122.97 49C122.97 50.6237 122.97 60.1106 122.97 64.7413V76.8967C122.97 79.7908 123.49 82.2151 120.174 83.7298C118.412 84.5348 116.256 83.4867 115.46 81.3107C114.788 79.4741 114.543 71.8249 112 68C107.308 60.9424 103.465 59.7678 99.5413 57.3126C90.6791 51.7674 76.5 49 76.5 49Z" fill="#03738C"/>
<path d="M122.97 64.7413C122.97 60.1106 122.97 50.6237 122.97 49C115.513 49 74.3208 49 76.5 49C76.5 49 90.6791 51.7674 99.5413 57.3126C103.465 59.7678 107.308 60.9424 112 68C114.543 71.8249 114.788 79.4741 115.46 81.3107C116.256 83.4867 118.412 84.5348 120.174 83.7298C123.49 82.2151 122.97 79.7908 122.97 76.8967M122.97 64.7413C122.97 70.5296 122.97 74.0025 122.97 76.8967M122.97 64.7413V76.8967" stroke="#03738C"/>
<path d="M60.98 106C71.4999 106 79.1633 106.524 84 99C88.5 92 88.5 86.5 94.5 86.5C99.5 86.5 100.98 88.5 100.98 90C100.98 91.6104 100.96 105.907 100.96 110.5V123.5C100.96 132.5 100.5 135.5 94.5 135.5C90 135.5 89.8558 133.26 88.5 131C87.6001 129.5 86.98 126.5 85.98 124.5C84.862 122.264 84 121.653 80.48 119C76.5 116 67.4799 115.5 60.98 115.5C60.9799 112.669 60.98 106 60.98 106Z" fill="#03738C"/>
<path d="M100.96 110.5C100.96 105.907 100.98 91.6104 100.98 90C100.98 88.5 99.5 86.5 94.5 86.5C88.5 86.5 88.5 92 84 99C79.1633 106.524 71.4999 106 60.98 106C60.98 106 60.9799 112.669 60.98 115.5C67.4799 115.5 76.5 116 80.48 119C84 121.653 84.862 122.264 85.98 124.5C86.98 126.5 87.6001 129.5 88.5 131C89.8558 133.26 90 135.5 94.5 135.5C100.5 135.5 100.96 132.5 100.96 123.5M100.96 110.5C100.96 116.241 100.96 120.629 100.96 123.5M100.96 110.5V123.5" stroke="#03738C"/>
<path d="M331 167.5H339V173H331V167.5Z" fill="#00E0FF"/>
<path d="M162.5 112L158 125H162L167.5 110L162.5 112Z" fill="#00E0FF"/>
<path d="M232 167.474L230.333 166L228 172.5L230 173.5L232 167.474Z" fill="#00E0FF"/>
<path d="M212 124H207.909L207 134.5H211.5L212 124Z" fill="#00E0FF"/>
<path d="M211.86 125.034C210.272 125.054 206.677 125.093 204.68 125.093C202.184 125.093 198.191 125.583 195.196 126.563C192.201 127.544 188.707 129.014 185.712 130.974C182.717 132.935 179.223 135.386 177.226 138.326C175.229 141.267 173.732 143.958 173.233 146.168C172.734 148.378 172.734 153.03 173.233 154.5C174.398 151.233 177.148 145.778 181.219 142.247C187.436 136.856 189.705 135.386 199.189 133.915C206.126 132.84 211.046 133 211.86 133V125.034Z" fill="#03738C"/>
<path d="M213.454 86.9407C211.376 85.7348 208.696 84 200.476 84C192.988 84 182.709 87.4308 186 87.4308C188.58 87.4308 200.975 83.0201 208.462 90.3715C210.459 92.332 211.86 92.7274 211.86 104V125.034V133V147V150C211.86 153.921 211.376 154.826 210.459 156.787C209.542 158.747 208.118 161.198 204.624 164.629C201.829 167.373 196.316 170.02 193.987 171C199.477 171 202.972 170.02 205.967 169.04C208.962 168.059 212.913 164.396 214.607 162.178C216.105 160.217 216.948 158.007 217.947 156.537C218.945 158.988 219.812 161.223 221.441 163C224.585 166.431 231.423 169.51 233.42 170C230.924 169.02 227.058 164.369 225.92 163C223.269 159.81 222.119 155.04 221.5 152C221.001 149.549 221.096 147.145 221.096 146.735C221.096 139.382 221.062 124.344 221.441 110.956C221.94 93.3122 216.418 88.6608 213.454 86.9407Z" fill="#03738C"/>
<path fill-rule="evenodd" clip-rule="evenodd" d="M335.5 170C354 170 368 149.935 368 125.765C368 101.594 353.449 82 335.5 82C317.551 82 303 101.594 303 125.765C303 147.5 315.5 170 335.5 170ZM335.5 86.2353C345.5 86.2353 362.5 96.1176 362.5 125.765C362.5 158.238 341.5 167.176 335.5 167.176C335.424 167.165 335.686 167.188 335.5 167.176C329.5 167.176 310 163.5 308.5 125.765C308.5 106.471 317.5 86.2353 335.5 86.2353Z" fill="#00E0FF"/>
<path d="M378.222 87H388V170H378.222V87Z" fill="#03738C"/>
<path d="M318 94.5C312.37 100.748 307 110.884 307 127.533C307 144.182 316.404 168 335 168C330 168 316.983 156.341 317.146 127.743C317.323 96.6279 328.576 86 335.5 86C330.379 86 325.036 86.6919 318 94.5Z" fill="#03738C"/>
<path d="M335 168C341.031 168 349.543 163.801 355.75 153.599C361.279 144.512 363.5 135.419 363.5 126.5C363.5 112.856 359.596 99.8081 350 92C344.377 87.4244 340.023 86 335.5 86C340.526 87.3779 352.735 94.3488 352.735 127.533C352.735 146.692 347.528 153.262 345.793 156.896C342.923 162.909 338.759 168 335 168Z" fill="#03738C"/>
<path d="M352.5 127.008C352.5 138.272 350.261 148.449 346.981 155.793C345.34 159.467 343.448 162.411 341.464 164.429C339.475 166.452 337.439 167.5 335.5 167.5C330.06 167.5 325.561 163.161 322.397 155.8C319.245 148.465 317.5 138.29 317.5 127.008C317.5 115.737 319.506 105.556 322.73 98.212C324.342 94.5393 326.249 91.5984 328.341 89.5827C330.43 87.5693 332.68 86.5 335 86.5C337.32 86.5 339.57 87.5693 341.659 89.5827C343.751 91.5984 345.658 94.5393 347.27 98.212C350.494 105.556 352.5 115.737 352.5 127.008Z" stroke="#EEC229"/>
</svg>
